#!OML:ASF E:\emotionWalksFemale\Project 1\Capture day 1\Session 1\Female1.ASF
:FULLY-SPECIFIED
:DEGREES
1312
root 10.1085 15.2616 -33.0215 1.95823 7.79539 363.293
lowerback 7.41411 -2.20945 -2.36918
upperback -4.99309 -3.13777 1.2451
thorax -9.2708 -1.32521 3.13159
lowerneck -0.891663 -4.0308 -4.2421
upperneck 7.54853 -5.96205 9.5262
head 3.10827 -2.81469 3.76531
rclavicle 1.49089e-014 1.03368e-014
rhumerus -52.1041 -13.201 -59.3787
rradius 34.8998
rwrist 17.0699
rhand -0.570645 -53.4076
rfingers 7.12502
rthumb 25.0437 -81.7858
lclavicle 1.49089e-014 1.03368e-014
lhumerus -42.0361 0.503774 86.9598
lradius 35.3015
lwrist -15.2479
lhand -3.60876 -35.4742
lfingers 7.12502
lthumb 22.1296 -6.72068
rfemur -31.306 22.7128 12.9692
rtibia 23.3367
rfoot -27.1988 -40.9838
rtoes 12.8601
lfemur 13.3901 -16.262 -34.7424
ltibia 3.98505
lfoot -16.302 12.8424
ltoes -13.0172
1313
root 10.1074 15.2595 -32.9619 1.99227 7.91394 363.323
lowerback 7.51376 -2.27251 -2.30428
upperback -5.08374 -3.21886 1.23657
thorax -9.42773 -1.36404 3.10716
lowerneck -0.760613 -4.01431 -4.06863
upperneck 7.39681 -5.92679 9.40846
head 3.01542 -2.80156 3.69166
rclavicle 3.83654e-014 -7.15625e-015
rhumerus -52.4533 -13.2555 -59.028
rradius 35.0813
rwrist 16.7662
rhand -0.675679 -53.4468
rfingers 7.12502
rthumb 24.943 -81.8389
lclavicle 3.83654e-014 -7.15625e-015
lhumerus -42.0823 0.282463 87.0672
lradius 35.4519
lwrist -15.0378
lhand -3.43833 -35.3768
lfingers 7.12502
lthumb 22.2932 -6.64279
rfemur -31.3447 23.1272 12.7295
rtibia 23.226
rfoot -26.9195 -41.6361
rtoes 12.0229
lfemur 14.1774 -16.3192 -34.7704
ltibia 2.87484
lfoot -15.6732 12.561
ltoes -12.3749
1314
root 10.1085 15.2636 -32.9004 2.06249 8.14582 363.319
lowerback 7.31759 -2.41839 -2.04025
upperback -5.07204 -3.38689 1.15629
thorax -9.30645 -1.46937 2.88691
lowerneck -0.568182 -3.94635 -3.87234
upperneck 7.13665 -5.82143 9.37898
head 2.87237 -2.75442 3.64814
rclavicle 3.12092e-014 9.54166e-015
rhumerus -52.7214 -13.2948 -58.8691
rradius 35.3002
rwrist 16.5033
rhand -0.574531 -53.7491
rfingers 7.12502
rthumb 25.04 -82.1278
lclavicle 3.12092e-014 9.54166e-015
lhumerus -42.0256 0.102303 87.0139
lradius 35.5521
lwrist -14.9818
lhand -3.47658 -35.3696
lfingers 7.12502
lthumb 22.2565 -6.63121
rfemur -31.3571 23.3697 12.5676
rtibia 23.1547
rfoot -26.668 -42.1999
rtoes 12.5135
lfemur 15.2869 -16.4928 -34.7638
ltibia 1.10774
lfoot -14.6114 12.307
ltoes -12.7729
1315
root 10.1075 15.2624 -32.8409 2.10391 8.06723 363.361
lowerback 7.43923 -2.43024 -2.13086
upperback -5.16379 -3.40708 1.26836
thorax -9.46655 -1.46401 3.07079
lowerneck -0.575563 -3.85406 -3.85156
upperneck 7.04579 -5.67724 9.19884
head 2.82235 -2.68843 3.58437
rclavicle -2.05245e-014 1.51076e-014
rhumerus -52.9692 -13.1576 -58.4184
rradius 35.4365
rwrist 16.3551
rhand -0.443576 -54.2919
rfingers 7.12502
rthumb 25.1654 -82.653
lclavicle -2.05245e-014 1.51076e-014
lhumerus -42.0851 0.0941021 87.2611
lradius 35.5863
lwrist -15.1268
lhand -3.79474 -35.362
lfingers 7.12502
lthumb 21.9511 -6.58743
rfemur -31.3459 23.2709 12.5871
rtibia 23.0994
rfoot -26.4437 -42.2073
rtoes 13.2198
lfemur 16.0678 -16.3565 -34.816
ltibia 1.59028e-014
lfoot -13.9362 12.0606
ltoes -12.4375
1316
root 10.1048 15.2613 -32.779 2.21704 8.07666 363.419
lowerback 7.32795 -2.46061 -2.12679
upperback -5.17396 -3.44456 1.27767
thorax -9.40898 -1.48373 3.07776
lowerneck -0.594186 -3.77868 -3.80471
upperneck 6.84196 -5.56014 9.18681
head 2.7452 -2.63271 3.57348
rclavicle 1.80397e-014 7.95139e-015
rhumerus -53.1086 -13.3437 -58.0457
rradius 35.4758
rwrist 16.4028
rhand -0.434855 -54.4783
rfingers 7.12502
rthumb 25.1738 -82.8382
lclavicle 1.80397e-014 7.95139e-015
lhumerus -41.9701 -0.2973 87.6319
lradius 35.7169
lwrist -15.3629
lhand -4.81224 -34.6442
lfingers 7.12502
lthumb 20.9738 -5.75819
rfemur -31.365 23.2628 12.5175
rtibia 23.0501
rfoot -26.7518 -42.3777
rtoes 14.2093
lfemur 16.2054 -16.3256 -34.8648
ltibia 5.88403e-014
lfoot -13.6926 12.0243
ltoes -13.5847
1317
root 10.1021 15.2648 -32.7153 2.32678 8.05975 363.492
lowerback 7.11275 -2.48449 -2.38081
upperback -5.13269 -3.48567 1.45817
thorax -9.2084 -1.48659 3.40324
lowerneck -0.609002 -3.70364 -3.9061
upperneck 6.63968 -5.43492 9.10624
head 2.6703 -2.57849 3.56707
rclavicle -1.83876e-014 -2.38542e-015
rhumerus -53.1288 -13.1835 -57.6826
rradius 35.7076
rwrist 16.1823
rhand -0.512346 -54.0999
rfingers 7.12502
rthumb 25.0995 -82.4702
lclavicle -1.83876e-014 -2.38542e-015
lhumerus -41.7343 -0.190119 87.9393
lradius 35.6944
lwrist -15.5846
lhand -5.1448 -34.3762
lfingers 7.12502
lthumb 20.6543 -5.45514
rfemur -31.3015 22.9079 12.6152
rtibia 23.0307
rfoot -26.4582 -42.4324
rtoes 14.4503
lfemur 16.3547 -16.2676 -34.9333
ltibia -4.77083e-014
lfoot -13.5332 12.0176
ltoes -14.1832
1318
root 10.1027 15.2683 -32.6514 2.431 8.01211 363.571
lowerback 7.31638 -2.56399 -2.19159
upperback -5.32993 -3.58515 1.36412
thorax -9.5557 -1.53921 3.23278
lowerneck -0.779605 -3.60464 -3.68832
upperneck 6.9002 -5.31755 9.00046
head 2.76836 -2.50828 3.49127
rclavicle 1.15295e-014 5.56597e-015
rhumerus -53.5847 -12.9153 -57.6461
rradius 36.0097
rwrist 16.0049
rhand -0.6709 -53.9925
rfingers 7.12502
rthumb 24.9476 -82.384
lclavicle 1.15295e-014 5.56597e-015
lhumerus -41.9559 -0.273104 87.84
lradius 35.795
lwrist -15.5434
lhand -5.17843 -34.2595
lfingers 7.12502
lthumb 20.622 -5.33494
rfemur -31.1799 22.2402 12.827
rtibia 23.0539
rfoot -26.6007 -41.9296
rtoes 16.3254
lfemur 16.5189 -16.1774 -35.0162
ltibia 4.6118e-014
lfoot -13.4204 11.9084
ltoes -13.9176
1319
root 10.0995 15.2694 -32.5833 2.51189 8.17638 363.639
lowerback 6.91194 -2.62872 -2.23419
upperback -5.16222 -3.66674 1.36845
thorax -9.12326 -1.5899 3.23994
lowerneck -1.12489 -3.57762 -3.37555
upperneck 6.90215 -5.27169 8.78877
head 2.80904 -2.47416 3.35413
rclavicle 1.98785e-015 -8.74653e-015
rhumerus -53.54 -13.2667 -57.3426
rradius 36.031
rwrist 16.1505
rhand -0.833088 -54.2678
rfingers 7.12502
rthumb 24.7922 -82.6808
lclavicle 1.98785e-015 -8.74653e-015
lhumerus -41.533 -0.427499 87.9377
lradius 35.7413
lwrist -15.5604
lhand -5.16348 -34.2725
lfingers 7.12502
lthumb 20.6363 -5.34949
rfemur -31.0363 22.1208 12.8244
rtibia 23.1401
rfoot -27.8449 -41.7152
rtoes 19.7573
lfemur 16.7395 -16.2919 -35.0702
ltibia -4.45278e-014
lfoot -13.1802 11.7731
ltoes -14.0091
1320
root 10.0992 15.2695 -32.519 2.6433 8.22782 363.694
lowerback 6.64136 -2.65589 -2.15965
upperback -5.11027 -3.69108 1.34416
thorax -8.91087 -1.61394 3.15644
lowerneck -1.17323 -3.55684 -3.26157
upperneck 6.79551 -5.23806 8.7747
head 2.77462 -2.45566 3.32733
rclavicle 5.72997e-014 2.38542e-015
rhumerus -53.6029 -13.5874 -57.0078
rradius 36.0318
rwrist 16.4493
rhand -0.89685 -54.0827
rfingers 7.12502
rthumb 24.7311 -82.5041
lclavicle 5.72997e-014 2.38542e-015
lhumerus -41.3129 -0.627155 88.0081
lradius 35.7541
lwrist -15.5273
lhand -4.87746 -34.3408
lfingers 7.12502
lthumb 20.9111 -5.44789
rfemur -30.9987 21.7698 12.9078
rtibia 23.2487
rfoot -27.615 -41.6329
rtoes 20.6224
lfemur 16.8768 -16.3094 -35.099
ltibia 1.27222e-014
lfoot -12.9721 11.609
ltoes -13.4019
1321
root 10.092 15.2669 -32.4501 2.5887 8.02648 363.738
lowerback 6.94565 -2.63369 -2.15173
upperback -5.25105 -3.66805 1.34188
thorax -9.24717 -1.59267 3.17193
lowerneck -1.14564 -3.49609 -3.3255
upperneck 6.87254 -5.16464 8.83729
head 2.7954 -2.41852 3.36493
rclavicle -1.3418e-014 0
rhumerus -53.9387 -13.4073 -56.769
rradius 36.1435
rwrist 16.5988
rhand -0.866816 -53.4651
rfingers 7.12502
rthumb 24.7599 -81.8826
lclavicle -1.3418e-014 0
lhumerus -41.5622 -0.774275 88.051
lradius 35.8894
lwrist -15.4389
lhand -4.70392 -34.3993
lfingers 7.12502
lthumb 21.0779 -5.52486
rfemur -30.7387 21.2425 13.2704
rtibia 23.3761
rfoot -26.4971 -41.3733
rtoes 19.9835
lfemur 17.191 -16.0297 -35.1849
ltibia -1.59028e-014
lfoot -12.549 11.7636
ltoes -16.5667
1322
root 10.0875 15.2672 -32.3781 2.65428 7.94206 363.765
lowerback 6.93417 -2.64409 -2.16412
upperback -5.31658 -3.6806 1.38065
thorax -9.30831 -1.59432 3.22409
lowerneck -1.16559 -3.42247 -3.21509
upperneck 6.7825 -5.05396 8.71791
head 2.75169 -2.36507 3.30486
rclavicle 5.96354e-016 -1.51076e-014
rhumerus -54.153 -13.1356 -56.6538
rradius 36.3383
rwrist 16.4904
rhand -0.854074 -53.2214
rfingers 7.12502
rthumb 24.7721 -81.6372
lclavicle 5.96354e-016 -1.51076e-014
lhumerus -41.5722 -0.853873 88.1205
lradius 35.9189
lwrist -15.4387
lhand -4.97503 -34.5116
lfingers 7.12502
lthumb 20.8174 -5.60839
rfemur -30.5706 20.7362 13.5522
rtibia 23.5038
rfoot -26.1884 -41.0537
rtoes 19.9044
lfemur 17.3623 -15.8929 -35.2273
ltibia -3.49861e-014
lfoot -11.9949 11.9856
ltoes -20.6565
